Coordinates
version=1
nRows=19
nColumns=24
inDegrees=yes

Units are S.I. units (second, meters, Newtons, ...)
Angles are in degrees.

endheader
time	pelvis_tilt	pelvis_list	pelvis_rotation	pelvis_tx	pelvis_ty	pelvis_tz	hip_flexion_r	hip_adduction_r	hip_rotation_r	knee_angle_r	ankle_angle_r	subtalar_angle_r	mtp_angle_r	hip_flexion_l	hip_adduction_l	hip_rotation_l	knee_angle_l	ankle_angle_l	subtalar_angle_l	mtp_angle_l	lumbar_extension	lumbar_bending	lumbar_rotation
      1.05866667	      7.82844861	     -3.42663287	     -1.05667147	      0.38988205	      1.02222809	      0.30283012	      4.62980999	      6.68746118	     -2.40959694	    -19.01446862	     -0.34937002	    -17.23915473	     -3.49495540	     10.22375040	     -7.37150246	     -5.00455536	    -80.37264806	      2.73338295	     -4.21916231	     -2.10715798	    -19.81652978	      5.74740907	      2.66863164
      1.06283333	      8.12510175	     -3.25724740	     -1.31783738	      0.39474667	      1.02378843	      0.30367559	      3.78436833	      6.54717870	     -2.10097861	    -18.60914937	     -0.22009315	    -17.14124864	     -3.46353668	     10.51981133	     -7.21542283	     -5.24092240	    -80.15552489	      2.86510522	     -4.05808429	     -2.19300081	    -20.15495597	      5.42018426	      2.91711935
      1.06700000	      8.32139732	     -3.07846024	     -1.52778925	      0.39957097	      1.02515374	      0.30436739	      3.06435901	      6.37846650	     -1.87596514	    -18.21745510	     -0.17447447	    -17.07359888	     -3.43719370	     10.94619371	     -7.02930090	     -5.41352145	    -79.91847313	      3.02323387	     -3.91587069	     -2.27134115	    -20.38238762	      5.12012222	      3.07814179
      1.07116667	      8.51172654	     -2.90226250	     -1.73570054	      0.40438928	      1.02648047	      0.30505951	      2.35258802	      6.20452061	     -1.66744010	    -17.82636386	     -0.11453319	    -16.97212571	     -3.41215841	     11.36691050	     -6.85322675	     -5.59776496	    -79.62881905	      3.16745471	     -3.80514927	     -2.34698976	    -20.60010983	      4.80943128	      3.22811428
      1.07533333	      8.69690856	     -2.72950401	     -1.93842697	      0.40918694	      1.02776577	      0.30574292	      1.64789448	      6.02841347	     -1.47153086	    -17.43176696	     -0.05940819	    -16.86901273	     -3.38968825	     11.78381188	     -6.68513952	     -5.78413014	    -79.28910739	      3.29626781	     -3.72140872	     -2.41985248	    -20.81160936	      4.50620841	      3.36578690
      1.07950000	      8.86535812	     -2.55275085	     -2.14274874	      0.41396707	      1.02900758	      0.30639795	      0.96522765	      5.83960805	     -1.27854116	    -17.03920955	      0.00227431	    -16.74709342	     -3.36752113	     12.20546214	     -6.51122384	     -5.97523615	    -78.89350849	      3.40466544	     -3.67389654	     -2.49626642	    -21.00465529	      4.21381196	      3.50122125
      1.08366667	      9.04109404	     -2.38379606	     -2.33864345	      0.41872603	      1.03021146	      0.30706261	      0.27801942	      5.65367667	     -1.10949007	    -16.64808802	      0.06367999	    -16.61222767	     -3.34814596	     12.60891428	     -6.35524804	     -6.17066875	    -78.45184471	      3.50866584	     -3.63181537	     -2.56854260	    -21.20689570	      3.91172483	      3.62698123
      1.08783333	      9.18436606	     -2.21419814	     -2.53403665	      0.42347929	      1.03134169	      0.30769996	     -0.36800036	      5.46079500	     -0.94858314	    -16.26491244	      0.12641278	    -16.46338946	     -3.33042974	     13.03504153	     -6.19923999	     -6.36935048	    -77.96001954	      3.59221168	     -3.62910688	     -2.64123536	    -21.37179328	      3.62402093	      3.74535319
      1.09200000	      9.32121119	     -2.04810018	     -2.72081932	      0.42821666	      1.03242204	      0.30831835	     -1.00424245	      5.26562726	     -0.80843418	    -15.88180783	      0.18984148	    -16.30301617	     -3.31559273	     13.45629949	     -6.04877266	     -6.56420881	    -77.41912054	      3.66876211	     -3.63588765	     -2.70851213	    -21.52861498	      3.34264740	      3.84980266
      1.09616667	      9.44785934	     -1.88492934	     -2.90981765	      0.43293588	      1.03344979	      0.30893782	     -1.62219366	      5.06882877	     -0.67775388	    -15.50924356	      0.26561393	    -16.12151423	     -3.30163805	     13.87393199	     -5.90640618	     -6.76844577	    -76.82944204	      3.73126781	     -3.67216329	     -2.77796127	    -21.67540977	      3.06040154	      3.95537423
      1.10033333	      9.56803533	     -1.73388173	     -3.08951011	      0.43763599	      1.03441994	      0.30954339	     -2.23027635	      4.88112682	     -0.56357876	    -15.13758932	      0.33796079	    -15.93525420	     -3.28955327	     14.28684057	     -5.78152929	     -6.96883332	    -76.19730286	      3.78890070	     -3.71869613	     -2.84639136	    -21.81701417	      2.78248188	      4.05486797
      1.10450000	      9.66844530	     -1.58031197	     -3.27107734	      0.44233355	      1.03532548	      0.31013836	     -2.81053256	      4.68568385	     -0.46303080	    -14.77430547	      0.41815072	    -15.73082534	     -3.27857463	     14.70440411	     -5.65631902	     -7.17613110	    -75.51357550	      3.83660641	     -3.79028450	     -2.91271323	    -21.93606465	      2.51170792	      4.14518170
      1.10866667	      9.74870479	     -1.44163751	     -3.44180201	      0.44701922	      1.03615596	      0.31069349	     -3.36481998	      4.50310165	     -0.37799624	    -14.41749946	      0.49867808	    -15.51735864	     -3.26914367	     15.13200005	     -5.54589947	     -7.37209490	    -74.79032650	      3.87952086	     -3.87858770	     -2.97911232	    -22.03245136	      2.26284499	      4.23282163
      1.11283333	      9.82649686	     -1.30500974	     -3.61511302	      0.45170067	      1.03694187	      0.31125518	     -3.91187478	      4.31918170	     -0.30297991	    -14.06643738	      0.58802789	    -15.29343752	     -3.25987944	     15.54235234	     -5.44283311	     -7.57816273	    -74.01627414	      3.91957545	     -3.97834670	     -3.04702079	    -22.12543480	      2.01771591	      4.31589572
      1.11700000	      9.88471571	     -1.17742994	     -3.78442206	      0.45637465	      1.03765249	      0.31179337	     -4.43265790	      4.14200913	     -0.23888682	    -13.72252828	      0.67650729	    -15.06085917	     -3.25127408	     15.95869159	     -5.35078397	     -7.78324873	    -73.19905311	      3.95432638	     -4.09970426	     -3.11516730	    -22.19883504	      1.77936553	      4.39682434
      1.12116667	      9.91882847	     -1.05993531	     -3.95080179	      0.46104525	      1.03828257	      0.31232651	     -4.92268098	      3.97542274	     -0.18176635	    -13.38656746	      0.76688296	    -14.82618019	     -3.24293696	     16.38466867	     -5.27341960	     -7.98454465	    -72.33972419	      3.98930578	     -4.22917353	     -3.18134786	    -22.24456265	      1.56028376	      4.47457533
      1.12533333	      9.93835610	     -0.94714902	     -4.11807329	      0.46571799	      1.03884920	      0.31285063	     -5.39137860	      3.81161192	     -0.13201034	    -13.06076144	      0.86545072	    -14.58575847	     -3.23469395	     16.80612658	     -5.20343571	     -8.19198713	    -71.43328411	      4.02042395	     -4.37284829	     -3.25044378	    -22.27374155	      1.34649902	      4.55409481
      1.12950000	      9.97014824	     -0.84485059	     -4.28046986	      0.47038040	      1.03938517	      0.31336160	     -5.87238856	      3.65622144	     -0.09459223	    -12.73459506	      0.96156432	    -14.34306870	     -3.22604999	     17.19449113	     -5.14519297	     -8.39959729	    -70.48087797	      4.04941058	     -4.53329628	     -3.32276488	    -22.31576760	      1.14295957	      4.63519658
      1.13366667	      9.96345681	     -0.75572585	     -4.43846524	      0.47505120	      1.03981814	      0.31386027	     -6.30685073	      3.51704641	     -0.06096353	    -12.41874501	      1.05536440	    -14.10672751	     -3.21767601	     17.60846152	     -5.10399249	     -8.60191627	    -69.49168321	      4.08102274	     -4.70498612	     -3.39385471	    -22.31405335	      0.95905694	      4.70787452
